<mxfile host="65bd71144e" modified="2020-11-24T06:50:41.874Z" agent="5.0 (Macintosh; Intel Mac OS X 10_15_7) AppleWebKit/537.36 (KHTML, like Gecko) Code/1.51.1 Chrome/83.0.4103.122 Electron/9.3.3 Safari/537.36" version="13.6.5" etag="ewW_9WBnQzHXMZOADokR">
    <diagram id="N7sWPk5iOICmCBT4g9RV" name="第 1 页">
        <mxGraphModel dx="898" dy="680" grid="1" gridSize="10" guides="1" tooltips="1" connect="1" arrows="1" fold="1" page="1" pageScale="1" pageWidth="827" pageHeight="1169" math="0" shadow="0">
            <root>
                <mxCell id="0"/>
                <mxCell id="1" parent="0"/>
                <mxCell id="2" value="前端" style="shape=umlLifeline;perimeter=lifelinePerimeter;whiteSpace=wrap;html=1;container=1;collapsible=0;recursiveResize=0;outlineConnect=0;" vertex="1" parent="1">
                    <mxGeometry x="240" y="40" width="80" height="630" as="geometry"/>
                </mxCell>
                <mxCell id="25" value="" style="html=1;points=[];perimeter=orthogonalPerimeter;" vertex="1" parent="2">
                    <mxGeometry x="35.5" y="380" width="10" height="150" as="geometry"/>
                </mxCell>
                <mxCell id="8" value="" style="html=1;points=[];perimeter=orthogonalPerimeter;" vertex="1" parent="2">
                    <mxGeometry x="35.5" y="80" width="10" height="120" as="geometry"/>
                </mxCell>
                <mxCell id="13" value="" style="html=1;points=[];perimeter=orthogonalPerimeter;" vertex="1" parent="2">
                    <mxGeometry x="35.5" y="220" width="10" height="150" as="geometry"/>
                </mxCell>
                <mxCell id="3" value="后端" style="shape=umlLifeline;perimeter=lifelinePerimeter;whiteSpace=wrap;html=1;container=1;collapsible=0;recursiveResize=0;outlineConnect=0;" vertex="1" parent="1">
                    <mxGeometry x="641" y="40" width="80" height="640" as="geometry"/>
                </mxCell>
                <mxCell id="4" value="" style="html=1;points=[];perimeter=orthogonalPerimeter;" vertex="1" parent="3">
                    <mxGeometry x="35" y="110" width="10" height="90" as="geometry"/>
                </mxCell>
                <mxCell id="14" value="" style="html=1;points=[];perimeter=orthogonalPerimeter;" vertex="1" parent="3">
                    <mxGeometry x="35" y="230" width="10" height="90" as="geometry"/>
                </mxCell>
                <mxCell id="5" value="浏览器" style="shape=umlLifeline;perimeter=lifelinePerimeter;whiteSpace=wrap;html=1;container=1;collapsible=0;recursiveResize=0;outlineConnect=0;" vertex="1" parent="1">
                    <mxGeometry x="80" y="40" width="80" height="640" as="geometry"/>
                </mxCell>
                <mxCell id="6" value="获取标签" style="html=1;verticalAlign=bottom;startArrow=oval;endArrow=block;startSize=8;" edge="1" parent="1" source="5" target="8">
                    <mxGeometry relative="1" as="geometry">
                        <mxPoint x="130" y="140" as="sourcePoint"/>
                        <Array as="points">
                            <mxPoint x="250.5" y="140"/>
                        </Array>
                    </mxGeometry>
                </mxCell>
                <mxCell id="7" value="GET /api/repo/&amp;lt;project&amp;gt;/&amp;lt;app&amp;gt;/tags" style="html=1;verticalAlign=bottom;startArrow=oval;startFill=1;endArrow=block;startSize=8;" edge="1" parent="1" source="8" target="11">
                    <mxGeometry width="60" relative="1" as="geometry">
                        <mxPoint x="310" y="170" as="sourcePoint"/>
                        <mxPoint x="460" y="190" as="targetPoint"/>
                        <Array as="points">
                            <mxPoint x="430" y="170"/>
                        </Array>
                    </mxGeometry>
                </mxCell>
                <mxCell id="9" value="success: true, 标签信息" style="html=1;verticalAlign=bottom;endArrow=open;dashed=1;endSize=8;entryX=1.1;entryY=0.817;entryDx=0;entryDy=0;entryPerimeter=0;" edge="1" parent="1" source="12" target="8">
                    <mxGeometry relative="1" as="geometry">
                        <mxPoint x="474" y="220" as="sourcePoint"/>
                        <mxPoint x="285" y="228" as="targetPoint"/>
                    </mxGeometry>
                </mxCell>
                <mxCell id="10" value="添加标签" style="html=1;verticalAlign=bottom;startArrow=oval;endArrow=block;startSize=8;" edge="1" parent="1" target="13">
                    <mxGeometry relative="1" as="geometry">
                        <mxPoint x="119.5" y="290" as="sourcePoint"/>
                        <Array as="points">
                            <mxPoint x="190" y="290"/>
                        </Array>
                    </mxGeometry>
                </mxCell>
                <mxCell id="11" value="接口" style="shape=umlLifeline;perimeter=lifelinePerimeter;whiteSpace=wrap;html=1;container=1;collapsible=0;recursiveResize=0;outlineConnect=0;" vertex="1" parent="1">
                    <mxGeometry x="480" y="40" width="80" height="640" as="geometry"/>
                </mxCell>
                <mxCell id="12" value="" style="html=1;points=[];perimeter=orthogonalPerimeter;" vertex="1" parent="11">
                    <mxGeometry x="35" y="100" width="10" height="100" as="geometry"/>
                </mxCell>
                <mxCell id="15" value="" style="html=1;points=[];perimeter=orthogonalPerimeter;" vertex="1" parent="11">
                    <mxGeometry x="35.5" y="230" width="10" height="120" as="geometry"/>
                </mxCell>
                <mxCell id="27" value="" style="html=1;points=[];perimeter=orthogonalPerimeter;" vertex="1" parent="11">
                    <mxGeometry x="35" y="380" width="10" height="120" as="geometry"/>
                </mxCell>
                <mxCell id="19" value="检查数据完整性" style="html=1;verticalAlign=bottom;startArrow=oval;endArrow=block;startSize=8;exitX=1;exitY=0.41;exitDx=0;exitDy=0;exitPerimeter=0;" edge="1" parent="1" source="12" target="4">
                    <mxGeometry relative="1" as="geometry">
                        <mxPoint x="490" y="180" as="sourcePoint"/>
                    </mxGeometry>
                </mxCell>
                <mxCell id="20" value="data" style="html=1;verticalAlign=bottom;endArrow=open;dashed=1;endSize=8;entryX=1.1;entryY=0.68;entryDx=0;entryDy=0;entryPerimeter=0;exitX=-0.3;exitY=0.644;exitDx=0;exitDy=0;exitPerimeter=0;" edge="1" parent="1" source="4" target="12">
                    <mxGeometry relative="1" as="geometry">
                        <mxPoint x="540" y="270" as="sourcePoint"/>
                        <mxPoint x="520" y="230" as="targetPoint"/>
                    </mxGeometry>
                </mxCell>
                <mxCell id="22" value="success: true" style="html=1;verticalAlign=bottom;endArrow=open;dashed=1;endSize=8;exitX=-0.25;exitY=0.85;exitDx=0;exitDy=0;exitPerimeter=0;" edge="1" parent="1" source="15" target="13">
                    <mxGeometry relative="1" as="geometry">
                        <mxPoint x="474.5" y="351" as="sourcePoint"/>
                        <mxPoint x="310" y="372" as="targetPoint"/>
                    </mxGeometry>
                </mxCell>
                <mxCell id="23" value="标签信息" style="html=1;verticalAlign=bottom;endArrow=open;dashed=1;endSize=8;exitX=0.1;exitY=0.9;exitDx=0;exitDy=0;exitPerimeter=0;" edge="1" parent="1" source="8" target="5">
                    <mxGeometry relative="1" as="geometry">
                        <mxPoint x="610" y="290" as="sourcePoint"/>
                        <mxPoint x="530" y="290" as="targetPoint"/>
                    </mxGeometry>
                </mxCell>
                <mxCell id="24" value="删除标签" style="html=1;verticalAlign=bottom;startArrow=oval;endArrow=block;startSize=8;" edge="1" parent="1" target="25">
                    <mxGeometry x="-0.0962" y="15" relative="1" as="geometry">
                        <mxPoint x="120" y="440" as="sourcePoint"/>
                        <Array as="points">
                            <mxPoint x="190.5" y="440"/>
                        </Array>
                        <mxPoint x="-10" y="5" as="offset"/>
                    </mxGeometry>
                </mxCell>
                <mxCell id="26" value="" style="html=1;points=[];perimeter=orthogonalPerimeter;" vertex="1" parent="1">
                    <mxGeometry x="676" y="420" width="10" height="90" as="geometry"/>
                </mxCell>
                <mxCell id="28" value="DELETE /api/repo/&amp;lt;project&amp;gt;/&amp;lt;app&amp;gt;/tags" style="html=1;verticalAlign=bottom;startArrow=oval;endArrow=block;startSize=8;entryX=0.05;entryY=0.25;entryDx=0;entryDy=0;entryPerimeter=0;" edge="1" parent="1" target="27">
                    <mxGeometry relative="1" as="geometry">
                        <mxPoint x="288.5" y="451" as="sourcePoint"/>
                    </mxGeometry>
                </mxCell>
                <mxCell id="29" value="检查数据完整性" style="html=1;verticalAlign=bottom;endArrow=block;" edge="1" parent="1" source="27">
                    <mxGeometry relative="1" as="geometry">
                        <mxPoint x="71" y="390" as="sourcePoint"/>
                        <mxPoint x="675.5" y="470" as="targetPoint"/>
                    </mxGeometry>
                </mxCell>
                <mxCell id="30" value="DATA" style="html=1;verticalAlign=bottom;endArrow=open;dashed=1;endSize=8;exitX=0;exitY=0.95;" edge="1" parent="1" source="26" target="27">
                    <mxGeometry relative="1" as="geometry">
                        <mxPoint x="500" y="505" as="targetPoint"/>
                    </mxGeometry>
                </mxCell>
                <mxCell id="31" value="success: true" style="html=1;verticalAlign=bottom;endArrow=open;dashed=1;endSize=8;exitX=-0.25;exitY=0.85;exitDx=0;exitDy=0;exitPerimeter=0;" edge="1" parent="1" source="27" target="25">
                    <mxGeometry relative="1" as="geometry">
                        <mxPoint x="475" y="501" as="sourcePoint"/>
                        <mxPoint x="310" y="522" as="targetPoint"/>
                    </mxGeometry>
                </mxCell>
                <mxCell id="18" value="DATA" style="html=1;verticalAlign=bottom;endArrow=open;dashed=1;endSize=8;exitX=0;exitY=0.95;" edge="1" parent="1" source="14" target="15">
                    <mxGeometry relative="1" as="geometry">
                        <mxPoint x="536" y="356" as="targetPoint"/>
                    </mxGeometry>
                </mxCell>
                <mxCell id="17" value="检查数据完整性，重复性" style="html=1;verticalAlign=bottom;endArrow=block;" edge="1" parent="1" source="15" target="14">
                    <mxGeometry relative="1" as="geometry">
                        <mxPoint x="536" y="320" as="sourcePoint"/>
                        <mxPoint x="660" y="320" as="targetPoint"/>
                    </mxGeometry>
                </mxCell>
                <mxCell id="16" value="POST /api/repo/&amp;lt;project&amp;gt;/&amp;lt;app&amp;gt;/tags" style="html=1;verticalAlign=bottom;startArrow=oval;endArrow=block;startSize=8;entryX=0.05;entryY=0.25;entryDx=0;entryDy=0;entryPerimeter=0;" edge="1" parent="1" target="15" source="13">
                    <mxGeometry relative="1" as="geometry">
                        <mxPoint x="346" y="300" as="sourcePoint"/>
                    </mxGeometry>
                </mxCell>
            </root>
        </mxGraphModel>
    </diagram>
</mxfile>